<mxfile host="app.diagrams.net" modified="2024-07-02T15:46:34.525Z" agent="Mozilla/5.0 (X11; Linux x86_64) AppleWebKit/537.36 (KHTML, like Gecko) Chrome/126.0.0.0 Safari/537.36" version="22.0.0" etag="rOnO3VVjnW3HjVAPZtrl" type="github">
  <diagram name="Page-1" id="HkPq0gFaIsP_YbuBWe67">
    <mxGraphModel>
      <root>
        <mxCell id="0" />
        <mxCell id="1" parent="0" />
      </root>
    </mxGraphModel>
  </diagram>
</mxfile>
